<svg xmlns="http://www.w3.org/2000/svg" width="41" height="44" fill="none" viewBox="0 0 41 44">
  <path fill="#050033" d="M34.515 5.244A21.089 21.089 0 0 0 21.73.817h-.363C10.28.911 1.22 9.517.419 20.425.38 20.945.363 21.47.363 22a21.145 21.145 0 0 0 1.204 7.052 21.12 21.12 0 0 0 2.293 4.61c3.79 5.738 10.296 9.52 17.686 9.52 2.386 0 4.674-.392 6.813-1.122l-1.366-2.003-7.257-10.625-.235-.341a13.293 13.293 0 0 1-2.207-7.364c0-4.073 1.819-7.719 4.687-10.173l.005.004a7.556 7.556 0 0 0-2.617 5.725 7.58 7.58 0 0 0 4.896 7.086 1.727 1.727 0 0 1 .26.094 2.486 2.486 0 0 1 1.516 2.293c0 .503-.15.977-.41 1.366l.009.004a2.485 2.485 0 0 0 1.093 3.684l-.005.004 4.21 1.823.008.004.167.073a2.49 2.49 0 0 0 3.398-2.318V12.864a2.493 2.493 0 0 1 4.11-1.895c.73.542 1.405 1.157 2.016 1.836a21.18 21.18 0 0 0-6.122-7.56Z"/>
</svg>
